<svg width="720" height="720" xmlns="http://www.w3.org/2000/svg" xmlns:xlink="http://www.w3.org/1999/xlink" xml:space="preserve" overflow="hidden"><g transform="translate(-280 0)"><path d="M940 360C940 525.685 805.685 660 640 660 474.315 660 340 525.685 340 360 340 194.315 474.315 60 640 60 805.685 60 940 194.315 940 360Z" stroke="#70AD47" stroke-width="45" fill="none"/><path d="M640 180 640 540" stroke="#70AD47" stroke-width="45" stroke-linecap="round" fill="none"/><path d="M730 285C730 243.579 689.707 210 640 210 590.293 210 550 243.579 550 285 550 326.421 590.293 360 640 360 689.707 360 730 393.579 730 435 730 476.421 689.707 510 640 510 590.293 510 550 476.421 550 435" stroke="#70AD47" stroke-width="45" stroke-linecap="round" fill="none"/></g></svg>